<svg id="Layer_1" data-name="Layer 1" xmlns="http://www.w3.org/2000/svg" viewBox="0 0 801 174.38"><defs><style>.cls-1{fill:#fff;}</style></defs><title>Octopart-Logo</title><path class="cls-1" d="M68.36.39A68.43,68.43,0,1,0,134,49.55,68.44,68.44,0,0,0,68.36.39Zm0,115.24a46.88,46.88,0,1,1,46.87-46.88A46.93,46.93,0,0,1,68.36,115.63Z"/><path class="cls-1" d="M666.92,37.41h-23a.2.2,0,0,0-.2.2v8.76a49.83,49.83,0,0,0-77.1,29.76,49.85,49.85,0,0,0,48.58,61,49.46,49.46,0,0,0,28.52-9v8.72a.2.2,0,0,0,.2.2h23a.2.2,0,0,0,.2-.2V37.61A.2.2,0,0,0,666.92,37.41ZM643.71,87.29a28.52,28.52,0,1,1,0-.1Z"/><path class="cls-1" d="M505.44,37.4a49.52,49.52,0,0,0-28.52,9V37.61a.2.2,0,0,0-.2-.2h-23a.2.2,0,0,0-.19.2V174.18a.2.2,0,0,0,.19.2h23a.2.2,0,0,0,.2-.2V128.11A49.84,49.84,0,1,0,505.44,37.4Zm0,78.36a28.56,28.56,0,0,1-28.52-28.47v-.1a28.52,28.52,0,1,1,28.52,28.57Z"/><path class="cls-1" d="M734.59,37.43l-.39,0h-.79a49.52,49.52,0,0,0-28.52,9V37.61a.19.19,0,0,0-.19-.2h-23a.2.2,0,0,0-.2.2v99.22a.2.2,0,0,0,.2.2h23a.19.19,0,0,0,.19-.2V87.19a28.56,28.56,0,0,1,28.52-28.47c.39,0,.78,0,1.16,0a.17.17,0,0,0,.15,0,.2.2,0,0,0,.06-.14V37.62A.2.2,0,0,0,734.59,37.43Z"/><path class="cls-1" d="M800.8,37.46H785.1V.2a.19.19,0,0,0-.19-.2h-23a.2.2,0,0,0-.2.2V37.46H746a.2.2,0,0,0-.2.2V58.35a.2.2,0,0,0,.2.2h15.7v78.22a.2.2,0,0,0,.2.2h23a.19.19,0,0,0,.19-.2V58.55h15.7a.2.2,0,0,0,.2-.2V37.66A.2.2,0,0,0,800.8,37.46Z"/><path class="cls-1" d="M195.58,37.26a49.85,49.85,0,1,0,37.83,82.28.19.19,0,0,0,0-.27l-14.87-14.86a.19.19,0,0,0-.16-.06.19.19,0,0,0-.14.08,28.52,28.52,0,1,1,1.17-33,.16.16,0,0,0,.14.08.22.22,0,0,0,.16-.05l15-15a.21.21,0,0,0,0-.27c-.13-.17-.28-.33-.42-.5A49.58,49.58,0,0,0,195.58,37.26Z"/><path class="cls-1" d="M300.4,37.46H284.71V.2a.2.2,0,0,0-.2-.2h-23a.2.2,0,0,0-.2.2V37.46H245.6a.2.2,0,0,0-.2.2V58.35a.2.2,0,0,0,.2.2h15.7v78.22a.2.2,0,0,0,.2.2h23a.2.2,0,0,0,.2-.2V58.55H300.4a.2.2,0,0,0,.2-.2V37.66A.2.2,0,0,0,300.4,37.46Z"/><path class="cls-1" d="M439.83,75.55H422.5a49.29,49.29,0,0,0-5.87-14.21L428.83,49a.2.2,0,0,0,0-.27L412.56,32.42a.21.21,0,0,0-.28,0L400,44.7l-.08-.05c-.34-.21-1.35-.79-1.35-.79l-.22-.13a49.53,49.53,0,0,0-12.66-5v-17a.2.2,0,0,0-.2-.2H362.62a.2.2,0,0,0-.2.2V38.62A49.22,49.22,0,0,0,348,44.54L335.86,32.45a.21.21,0,0,0-.28,0L319.32,48.72a.2.2,0,0,0,0,.28l12,12.16a49.43,49.43,0,0,0-5.93,14.39H308.28a.2.2,0,0,0-.19.2v23a.2.2,0,0,0,.19.2h17.15a49.33,49.33,0,0,0,6,14.29l-12.11,12.29a.21.21,0,0,0,0,.28l16.27,16.26a.19.19,0,0,0,.28,0l12.27-12.27a49.3,49.3,0,0,0,14.31,5.91v17.19a.19.19,0,0,0,.2.19h22.74a.19.19,0,0,0,.2-.19V135.75a49.36,49.36,0,0,0,14.39-5.9L412.22,142a.19.19,0,0,0,.28,0l16.27-16.26a.21.21,0,0,0,0-.28l-12.14-12.31A49.23,49.23,0,0,0,422.5,99h17.33a.2.2,0,0,0,.2-.2v-23A.2.2,0,0,0,439.83,75.55Zm-65.77,35.82a24.08,24.08,0,1,1,24.08-24.08A24.1,24.1,0,0,1,374.06,111.37Z"/></svg>